<svg width="34" height="32" viewBox="0 0 34 32" fill="none" xmlns="http://www.w3.org/2000/svg">
<path d="M32.5562 12.6675H31.4451V6.00087C31.4451 5.70618 31.328 5.42357 31.1196 5.21519C30.9113 5.00682 30.6287 4.88976 30.334 4.88976H3.66731C3.40421 4.89405 3.14813 4.80483 2.94465 4.63798C2.74118 4.47113 2.60353 4.23749 2.5562 3.97865V3.57865C2.60353 3.3198 2.74118 3.08616 2.94465 2.91931C3.14813 2.75246 3.40421 2.66324 3.66731 2.66753H29.8673C30.162 2.66753 30.4446 2.55047 30.653 2.3421C30.8614 2.13372 30.9784 1.85111 30.9784 1.55642C30.9784 1.26174 30.8614 0.979123 30.653 0.77075C30.4446 0.562376 30.162 0.445313 29.8673 0.445312H3.66731C2.78325 0.445312 1.93541 0.796502 1.31029 1.42162C0.685164 2.04674 0.333974 2.89459 0.333974 3.77865C0.326175 3.91187 0.326175 4.04543 0.333974 4.17865V27.0342C0.338336 27.6325 0.460492 28.224 0.693469 28.775C0.926446 29.3261 1.26568 29.8258 1.6918 30.2457C2.11792 30.6657 2.62258 30.9976 3.17697 31.2224C3.73136 31.4473 4.32462 31.5608 4.92286 31.5564H30.334C30.6287 31.5564 30.9113 31.4394 31.1196 31.231C31.328 31.0226 31.4451 30.74 31.4451 30.4453V23.7786H32.5562C32.8509 23.7786 33.1335 23.6616 33.3419 23.4532C33.5502 23.2448 33.6673 22.9622 33.6673 22.6675V13.7786C33.6673 13.484 33.5502 13.2013 33.3419 12.993C33.1335 12.7846 32.8509 12.6675 32.5562 12.6675ZM29.2229 29.3342H4.92286C4.30487 29.3402 3.70951 29.1019 3.2663 28.6712C2.82309 28.2404 2.56788 27.6521 2.5562 27.0342V6.97865C2.91686 7.08317 3.29215 7.1282 3.66731 7.11198H29.2229V12.6675H21.4451C19.9717 12.6675 18.5586 13.2529 17.5167 14.2947C16.4748 15.3366 15.8895 16.7497 15.8895 18.2231C15.8895 19.6965 16.4748 21.1096 17.5167 22.1515C18.5586 23.1933 19.9717 23.7786 21.4451 23.7786H29.2229V29.3342ZM31.4451 21.5564H21.4451C20.561 21.5564 19.7132 21.2052 19.0881 20.5801C18.4629 19.955 18.1118 19.1071 18.1118 18.2231C18.1118 17.339 18.4629 16.4912 19.0881 15.8661C19.7132 15.2409 20.561 14.8898 21.4451 14.8898H31.4451V21.5564Z" fill="#00E8FE"/>
</svg>
