<svg width="20" height="16" viewBox="0 0 20 16" fill="none" xmlns="http://www.w3.org/2000/svg">
<path fill-rule="evenodd" clip-rule="evenodd" d="M18 5C19.1 5 20 5.9 20 7V9C20 10.1 19.1 11 18 11V14C18 14.5304 17.7893 15.0391 17.4142 15.4142C17.0391 15.7893 16.5304 16 16 16H2C1.46957 16 0.960859 15.7893 0.585786 15.4142C0.210714 15.0391 0 14.5304 0 14V2C0 1.46957 0.210714 0.960859 0.585786 0.585786C0.960859 0.210714 1.46957 0 2 0H16C16.5304 0 17.0391 0.210714 17.4142 0.585786C17.7893 0.960859 18 1.46957 18 2V5ZM16 5V2H2V14H16V11H14C12.9 11 12 9.9 12 9V7.032C12 5.9 12.9 5 14 5H16ZM14 9H16V7H14V9Z" fill="#034046"/>
</svg>
